# xmcd CD database file
#
# Track frame offsets:
#	150
#	18210
#	35374
#	48688
#	69509
#	86224
#	100399
#	113758
#	135188
#	150555
#	167253
#	176866
#	191236
#	206038
#	218207
#	230559
#
# Disc length: 3248 seconds
#
# Revision: 0
# Processed by: cddbd v1.5.2PL0 Copyright (c) Steve Scherf et al.
# Submitted via: CDex 1.70beta1
#
DISCID=dc0cae10
DTITLE=Humphrey Lyttleton - 1959 CD 1
DYEAR=1900
DGENRE=Jazz
TTITLE0=Take The 'A' Train01
TTITLE1=When It's Sleepy Time Down South
TTITLE2=Swingtime In The Rockies
TTITLE3=I Can't Get Started
TTITLE4=Southern Sunset
TTITLE5=For Dancers Only
TTITLE6=Stompin' At The Savoy
TTITLE7=Midnight Sun
TTITLE8=Alligator Crawl
TTITLE9=Blue And Sentimental
TTITLE10=Marie 
TTITLE11=Nightmare
TTITLE12=Singin' The Blues
TTITLE13=Stompy Jones
TTITLE14=Manhunt
TTITLE15=Summertime
EXTD=
EXTT0=
EXTT1=
EXTT2=
EXTT3=
EXTT4=
EXTT5=
EXTT6=
EXTT7=
EXTT8=
EXTT9=
EXTT10=
EXTT11=
EXTT12=
EXTT13=
EXTT14=
EXTT15=
PLAYORDER=
